<svg width="115" height="181" viewBox="0 0 115 181" fill="none" xmlns="http://www.w3.org/2000/svg">
<path d="M104.384 11.552C88.8533 5.57866 74.176 2.592 60.352 2.592C46.6987 2.592 36.032 5.49333 28.352 11.296C20.672 17.0987 16.832 25.12 16.832 35.36C16.832 47.8187 23.3173 57.4613 36.288 64.288C42.0907 67.1893 48.4053 69.92 55.232 72.48C62.2293 74.8693 69.2267 77.6 76.224 80.672C83.2213 83.744 89.6213 87.2427 95.424 91.168C101.227 95.0933 105.92 100.555 109.504 107.552C113.088 114.379 114.88 123.168 114.88 133.92C114.88 144.501 111.893 153.547 105.92 161.056C99.9467 168.565 92.6933 173.685 84.16 176.416C75.7973 178.976 65.984 180.256 54.72 180.256C33.728 180.256 15.808 175.051 0.96 164.64L2.24 162.592C7.872 167.029 15.1253 170.699 24 173.6C33.0453 176.331 42.2613 177.696 51.648 177.696C65.472 177.696 77.248 174.539 86.976 168.224C96.8747 161.739 101.824 152.267 101.824 139.808C101.824 126.155 95.3387 115.488 82.368 107.808C76.5653 104.395 70.1653 101.237 63.168 98.336C56.3413 95.4347 49.4293 92.448 42.432 89.376C35.4347 86.1333 29.0347 82.5493 23.232 78.624C10.2613 70.0907 3.776 57.9733 3.776 42.272C3.776 29.8133 7.95733 19.744 16.32 12.064C24.6827 4.21333 37.2267 0.287994 53.952 0.287994C70.848 0.287994 88 3.18933 105.408 8.99199L104.384 11.552Z" fill="#1D77FF"/>
</svg>
